<?xml version="1.0" encoding="UTF-8" standalone="no"?>
<!-- Created with Inkscape (http://www.inkscape.org/) -->

<svg
   version="1.1"
   id="svg1"
   width="237.23502mm"
   height="166.6875mm"
   viewBox="0 0 896.63629 630.00001"
   xmlns="http://www.w3.org/2000/svg"
   xmlns:svg="http://www.w3.org/2000/svg">
  <defs
     id="defs1" />
  <g
     id="g1"
     transform="translate(-129.99999,-65.071984)">
    <g
       id="g3"
       transform="matrix(0,3.1953352,-3.1953352,0,1180.6573,-101.49612)">
      <path
         id="path2"
         d="m 0,0 v 143.256 l -2.923,2.923 V 2.926 H -146.165 L -143.24,0 Z m -69.449,105.324 c 1.065,0.568 1.935,1.066 3.078,1.392 0.764,0.217 1.591,0.449 2.399,0.37 1.18,-0.119 1.618,-0.917 1.489,-1.735 1.039,0.552 3.006,0.867 3.952,0 0.903,-0.828 1.087,-2.18 0.786,-3.302 -1.054,1.126 -2.407,1.41 -3.839,0.71 -1.074,-0.525 -1.966,-1.447 -2.456,-2.525 0.466,-0.534 1.954,-0.108 2.466,0.157 0.56,0.291 1.056,0.761 1.689,1.447 -0.082,-1.023 -0.203,-1.967 -0.572,-2.471 -0.702,-0.952 -1.404,-1.149 -2.602,-1.566 -0.932,-0.323 -1.871,-0.776 -2.795,-1.711 -0.797,-1.064 -1.003,-2.904 -0.758,-4.462 0.27,-1.72 0.901,-3.535 1.437,-5.309 0.528,-1.781 0.966,-3.532 0.839,-5.135 2.741,-0.439 7.142,2.611 8.684,3.857 1.711,1.382 3.473,2.993 4.32,4.557 0.693,1.271 0.894,3.863 -0.408,5.887 -2.456,3.83 -1.114,10.011 4.101,11.59 3.198,0.93 7.591,0.036 9.566,-3.529 1.922,-3.472 2.366,-7.388 2.308,-11.485 -0.089,-6.282 -0.338,-10.189 0.825,-14.876 0.575,-2.291 1.646,-4.412 3.346,-6.356 -1.339,-1.584 -3.564,-0.499 -5.28,0.967 -2.54,2.167 -4.71,7.063 -6.105,14.937 l -0.266,-0.972 c -0.065,-4.743 0.551,-8.367 1.575,-12.603 1.041,-4.278 2.544,-6.776 6.216,-9.576 -2.012,-1.823 -4.05,-1.04 -5.828,0.314 -3.528,2.689 -5.056,5.748 -6.497,11.92 l -0.269,-0.343 c -0.305,-3.621 0.074,-7.215 1.239,-10.471 1.108,-3.109 3.262,-6.095 6.03,-8.364 -1.881,-1.698 -3.932,-0.572 -5.639,0.667 -2.414,1.747 -6.014,5.127 -7.167,11.749 l -0.303,-0.256 c -0.121,-3.795 0.23,-7.205 1.05,-10.132 0.837,-2.991 3.373,-6.555 5.923,-8.27 -2.12,-1.791 -4.041,-0.691 -5.591,0.502 -4.133,3.18 -6.726,7.667 -7.678,13.624 l -0.368,-0.189 c -0.442,-6.473 -0.417,-13.571 5.383,-17.716 l -2.301,-1.451 1.347,-2.283 c 0.593,-1.011 5.959,1.74 8.141,0 0.876,-0.706 1.448,-1.831 0.815,-3.262 l -0.132,0.054 c -0.059,1.012 -0.572,1.54 -1.237,1.817 -0.971,0.406 -2.457,0.303 -3.572,-0.974 -2.153,-1.46 -3.675,-0.42 -4.783,-1.88 -0.663,-0.858 -0.645,-1.622 -0.368,-2.476 l -0.11,-0.064 c -2.966,1.552 -0.192,4.425 -0.743,5.387 l -1.448,2.534 -2.322,-1.409 c -0.208,1.697 -2.856,10.729 -4.449,11.341 -0.421,-0.595 -0.396,-2.175 -0.462,-3.266 -0.081,-1.522 0.618,-2.633 0.462,-4.758 -0.063,-0.922 -0.531,-2.202 -1.27,-3.472 0.73,-0.476 1.059,-1.224 1.041,-2.095 -0.02,-0.974 -0.458,-2.104 -0.761,-3.028 -0.387,-1.181 -0.724,-2.087 -0.28,-2.087 1.276,0.665 2.466,0.783 3.496,0.486 1.484,-0.425 2.43,-1.847 3.772,-2.539 1.55,-0.799 2.871,-0.664 4.644,-1.333 -2.418,-0.926 -2.765,-3.406 -6.053,-2.895 -1.984,0.308 -4.949,4.047 -5.487,3.741 -0.38,-1.11 -0.136,-2.403 0.076,-4.146 0.105,-0.869 0.208,-1.857 0.215,-2.986 0.01,-1.133 -0.071,-2.41 -0.317,-3.865 -0.335,-1.942 -1.036,-4.432 -2.168,-7.094 h 0.029 c 44.41,14.851 44.739,77.026 45.106,96.949 h -45.165 z m 2.511,-0.627 c -0.409,-0.386 -0.579,-0.883 -0.82,-1.381 0.032,-0.086 0.261,0.114 0.749,0.261 0.794,0.244 2.199,-0.015 2.636,0.508 0.299,0.33 0.675,0.645 1.065,0.835 -0.07,1.209 -2.751,0.619 -3.63,-0.223 m 22.356,-5.172 h -0.271 C -46.07,87.193 -56.072,73.999 -69.443,73.567 l 0.006,-4.659 c 16.516,1.047 24.526,13.982 24.855,30.617 m -1.308,-0.398 c 0,0.963 -0.744,1.751 -1.659,1.751 -0.919,0 -1.661,-0.788 -1.661,-1.751 0,-0.97 0.742,-1.757 1.661,-1.757 0.915,0 1.659,0.787 1.659,1.757 m 2.313,-0.509 c 0,-0.964 0.738,-1.75 1.659,-1.75 0.913,0 1.658,0.786 1.658,1.75 0,0.97 -0.745,1.76 -1.658,1.76 -0.921,0 -1.659,-0.79 -1.659,-1.76 m -0.925,1.84 c 0.916,0 1.666,0.787 1.666,1.751 0,0.97 -0.75,1.758 -1.666,1.758 -0.913,0 -1.657,-0.788 -1.657,-1.758 0,-0.964 0.744,-1.751 1.657,-1.751 m -51.417,-13.724 0.273,-0.973 c 0.063,-4.743 -0.558,-8.368 -1.582,-12.603 -1.036,-4.278 -2.548,-6.776 -6.216,-9.576 2.016,-1.823 4.052,-1.04 5.828,0.314 3.536,2.689 5.05,5.749 6.497,11.92 l 0.264,-0.343 c 0.31,-3.621 -0.069,-7.215 -1.229,-10.47 -1.114,-3.109 -3.263,-6.096 -6.033,-8.364 1.88,-1.699 3.933,-0.573 5.639,0.666 2.411,1.747 6.013,5.129 7.163,11.751 l 0.303,-0.258 c 0.126,-3.792 -0.23,-7.204 -1.046,-10.13 -0.835,-2.993 -3.377,-6.556 -5.923,-8.269 2.119,-1.794 4.043,-0.693 5.593,0.499 4.127,3.18 6.727,7.669 7.675,13.624 l 0.368,-0.189 c 0.444,-6.473 0.416,-13.567 -5.383,-17.715 l 2.3,-1.45 -1.347,-2.285 c -0.593,-1.011 -5.96,1.74 -8.137,0 -0.885,-0.706 -1.448,-1.831 -0.813,-3.262 l 0.132,0.055 c 0.053,1.011 0.565,1.539 1.235,1.816 0.97,0.406 2.456,0.305 3.568,-0.975 2.155,-1.458 3.672,-0.419 4.786,-1.879 0.657,-0.858 0.646,-1.622 0.367,-2.473 l 0.107,-0.067 c 2.97,1.552 0.194,4.425 0.742,5.387 l 1.445,2.534 2.328,-1.409 c 0.209,1.697 2.853,10.729 4.453,11.341 0.413,-0.595 0.394,-2.176 0.456,-3.264 0.083,-1.524 -0.615,-2.635 -0.462,-4.76 0.064,-0.922 0.532,-2.2 1.27,-3.472 -0.728,-0.476 -1.062,-1.227 -1.045,-2.095 0.021,-0.974 0.465,-2.104 0.76,-3.028 0.395,-1.18 0.737,-2.079 0.285,-2.079 -1.272,0.659 -2.47,0.777 -3.494,0.478 -1.488,-0.425 -2.431,-1.847 -3.772,-2.539 -1.554,-0.795 -2.872,-0.664 -4.649,-1.333 2.421,-0.926 2.769,-3.406 6.057,-2.892 1.981,0.305 4.952,4.049 5.488,3.737 0.377,-1.109 0.134,-2.399 -0.077,-4.145 -0.102,-0.869 -0.205,-1.857 -0.216,-2.986 -0.009,-1.133 0.075,-2.41 0.322,-3.865 0.326,-1.937 1.009,-4.438 2.143,-7.094 h 0.021 l 0.016,54.294 c -16.518,1.049 -24.529,13.984 -24.858,30.617 h 0.273 c 1.222,-12.331 11.215,-25.523 24.585,-25.959 V 68.91 c 0,0 0.002,-0.002 0.003,-0.002 v 4.659 h -0.003 l 0.009,31.757 c -1.066,0.568 -1.933,1.066 -3.077,1.394 -0.765,0.216 -1.59,0.447 -2.4,0.368 -1.182,-0.118 -1.617,-0.916 -1.485,-1.735 -1.044,0.553 -3.006,0.867 -3.949,0.001 -0.904,-0.829 -1.091,-2.178 -0.789,-3.303 1.054,1.126 2.406,1.412 3.835,0.713 1.074,-0.523 1.966,-1.45 2.455,-2.529 -0.46,-0.532 -1.953,-0.109 -2.464,0.158 -0.561,0.291 -1.056,0.761 -1.69,1.447 0.081,-1.023 0.206,-1.967 0.575,-2.469 0.701,-0.954 1.399,-1.148 2.597,-1.568 0.931,-0.323 1.873,-0.776 2.797,-1.711 0.803,-1.064 1.004,-2.906 0.757,-4.462 -0.269,-1.722 -0.9,-3.534 -1.435,-5.309 -0.529,-1.78 -0.966,-3.532 -0.839,-5.135 -2.735,-0.439 -7.14,2.614 -8.686,3.857 -1.712,1.383 -3.469,2.993 -4.318,4.558 -0.689,1.27 -0.897,3.865 0.405,5.886 2.46,3.83 1.118,10.013 -4.096,11.59 -3.197,0.93 -7.592,0.036 -9.566,-3.529 -1.925,-3.473 -2.372,-7.388 -2.309,-11.485 0.09,-6.282 0.343,-10.188 -0.828,-14.876 -0.57,-2.29 -1.644,-4.412 -3.342,-6.356 1.33,-1.584 3.564,-0.499 5.279,0.967 2.54,2.167 4.71,7.064 6.104,14.938 m 24.029,16.844 c -0.798,0.243 -2.202,-0.016 -2.635,0.507 -0.295,0.33 -0.673,0.65 -1.063,0.834 0.07,1.208 2.743,0.621 3.627,-0.223 0.409,-0.385 0.583,-0.882 0.824,-1.378 -0.037,-0.088 -0.262,0.115 -0.753,0.26 m -21.115,-4.451 c 0,0.964 0.741,1.751 1.658,1.751 0.911,0 1.66,-0.787 1.66,-1.751 0,-0.97 -0.749,-1.755 -1.66,-1.755 -0.917,0 -1.658,0.785 -1.658,1.755 m -1.393,1.331 c -0.914,0 -1.658,0.789 -1.658,1.754 0,0.966 0.744,1.757 1.658,1.757 0.912,0 1.66,-0.791 1.66,-1.757 0,-0.965 -0.748,-1.754 -1.66,-1.754 m -2.579,-3.59 c -0.913,0 -1.658,0.786 -1.658,1.757 0,0.963 0.745,1.753 1.658,1.753 0.914,0 1.663,-0.79 1.663,-1.753 0,-0.971 -0.749,-1.757 -1.663,-1.757 m -15.618,-82.254 v 106.985 0.003 c -3.43,-2.438 -7.542,-1.357 -9.075,2.917 h -0.209 l 8.878,-109.905 z m 0,106.985 h 88.311 v 0.411 l -90.467,9.55 v -0.172 c 4.083,-1.722 5.267,-6.649 2.156,-9.789"
         style="fill:#000000;fill-opacity:0;fill-rule:nonzero;stroke:#000000;stroke-opacity:1"
         transform="matrix(1.3333333,0,0,-1.3333333,248.62427,244.71667)" />
      <path
         id="path3"
         d="M 0,0 C 0.828,0 1.564,0.235 2.362,0.473 L 2.244,1.033 C 2.068,1.004 1.89,1.004 1.742,1.004 0.65,1.004 0.473,1.535 0.473,2.923 v 0.796 l 0.118,4.929 v 0.355 c 0,3.276 -1.269,4.841 -4.547,4.841 -1.8,0 -3.424,-0.561 -4.664,-1.623 l -0.059,-1.506 h 0.236 c 0.887,1.358 2.126,2.037 3.72,2.037 2.332,0 3.219,-1.239 3.219,-3.778 V 8.354 C -2.243,7.705 -3.985,7.585 -6.524,7.054 -8.796,6.552 -9.89,5.343 -9.89,3.276 c 0,-2.243 1.418,-3.547 3.987,-3.547 1.652,0 3.099,0.685 4.309,1.953 C -1.416,0.531 -1.003,0 0,0 m -1.565,3.423 c 0,-0.412 -0.029,-0.767 -0.501,-1.239 -0.767,-0.766 -1.948,-1.268 -2.893,-1.268 -1.594,0 -2.568,1.001 -2.568,2.744 0,2.273 1.8,2.804 5.962,3.482 z m -10.91,-31.857 c 0.528,0 1.085,-0.03 1.614,-0.122 -2.582,3.054 -4.839,5.67 -6.745,7.897 l 2.581,2.44 c 1.553,1.465 2.756,2.55 3.722,3.195 -0.409,-0.057 -0.849,-0.086 -1.26,-0.086 -0.41,0 -0.821,0.029 -1.26,0.086 -3.139,-3.993 -5.454,-5.838 -5.983,-5.838 -0.322,0 -0.468,0.174 -0.468,0.497 v 0.968 c 0,3.581 0.029,7.671 0.146,12.316 -0.381,-0.059 -0.792,-0.118 -1.202,-0.118 -0.381,0 -0.791,0.059 -1.203,0.118 0.118,-3.623 0.147,-7.186 0.147,-10.699 0,-2.761 -0.029,-6.338 -0.147,-10.776 0.412,0.092 0.822,0.151 1.203,0.151 0.41,0 0.821,-0.059 1.202,-0.151 -0.146,2.234 -0.146,3.963 -0.146,5.112 v 1.612 c 0,0.264 0,0.382 0.263,0.382 0.44,0 2.522,-2.315 6.07,-7.106 0.469,0.092 0.968,0.122 1.466,0.122 m 1.523,28.429 c -2.598,3.075 -4.87,5.707 -6.79,7.95 l 2.598,2.456 c 1.564,1.476 2.775,2.568 3.75,3.217 -0.414,-0.059 -0.856,-0.088 -1.27,-0.088 -0.414,0 -0.827,0.029 -1.269,0.088 -3.159,-4.02 -5.491,-5.879 -6.022,-5.879 -0.325,0 -0.473,0.177 -0.473,0.502 v 0.975 c 0,3.606 0.03,7.723 0.148,12.396 -0.384,-0.058 -0.798,-0.117 -1.21,-0.117 -0.384,0 -0.798,0.059 -1.211,0.117 0.119,-3.644 0.148,-7.23 0.148,-10.768 0,-2.781 -0.029,-6.383 -0.148,-10.849 0.413,0.093 0.827,0.152 1.211,0.152 0.412,0 0.826,-0.059 1.21,-0.152 -0.148,2.248 -0.148,3.989 -0.148,5.146 v 1.624 c 0,0.264 0,0.384 0.266,0.384 0.442,0 2.539,-2.333 6.111,-7.154 0.471,0.093 0.973,0.122 1.476,0.122 0.531,0 1.092,-0.029 1.623,-0.122 m -21.374,-18.02 c 0,1.438 0.997,2.406 2.434,2.406 1.144,0 2.229,-0.644 3.313,-1.906 0.118,0.615 0.322,1.201 0.616,1.818 -0.968,0.585 -2.2,0.938 -3.578,0.938 -2.697,0 -4.397,-1.673 -4.397,-3.959 0,-2.023 0.938,-3.079 3.107,-3.694 l 1.32,-0.382 c 1.525,-0.41 2.257,-0.997 2.257,-2.345 0,-1.612 -1.084,-2.609 -2.784,-2.609 -1.378,0 -2.552,0.732 -3.49,2.198 -0.177,-0.733 -0.41,-1.466 -0.703,-2.227 0.996,-0.677 2.287,-1.031 3.724,-1.031 3.049,0 5.072,1.969 5.072,4.519 0,1.789 -0.88,2.727 -2.757,3.285 l -1.964,0.586 c -1.466,0.439 -2.17,1.085 -2.17,2.403 m 2.659,31.643 c 0.088,-2.096 0.147,-4.255 0.147,-6.469 0,-2.392 -0.059,-4.789 -0.147,-7.154 0.412,0.093 0.797,0.152 1.18,0.152 0.412,0 0.826,-0.059 1.181,-0.152 -0.089,2.365 -0.148,4.762 -0.148,7.154 0,2.214 0.059,4.343 0.148,6.469 -0.355,-0.088 -0.769,-0.118 -1.181,-0.118 -0.383,0 -0.768,0.03 -1.18,0.118 m 2.656,5.01 c 0,0.825 -0.65,1.445 -1.476,1.445 -0.797,0 -1.476,-0.62 -1.476,-1.445 0,-0.798 0.679,-1.447 1.476,-1.447 0.826,0 1.476,0.649 1.476,1.447 m -7.203,-18.633 c -0.06,1.628 -0.089,3.134 -0.089,4.552 0,1.356 0.06,2.774 0.06,4.192 0,3.452 -1.536,5.166 -4.606,5.166 -1.949,0 -3.424,-0.916 -4.517,-2.806 0,0.355 -0.029,0.708 -0.029,1.063 0,0.472 0.029,0.945 0.059,1.447 -0.355,-0.088 -0.738,-0.118 -1.151,-0.118 -0.355,0 -0.769,0.03 -1.181,0.118 0.117,-2.037 0.117,-4.192 0.117,-6.555 V 5.017 c 0,-1.741 0,-3.394 -0.117,-5.022 0.412,0.093 0.797,0.152 1.181,0.152 0.413,0 0.825,-0.059 1.21,-0.152 -0.059,1.479 -0.059,3.252 -0.059,5.406 v 1.3 c 0,1.918 0.059,3.365 0.973,4.486 0.65,0.857 1.565,1.241 2.687,1.241 2.185,0 3.278,-1.417 3.278,-4.252 0,-3.423 -0.06,-6.168 -0.178,-8.181 0.414,0.093 0.797,0.152 1.181,0.152 0.384,0 0.798,-0.059 1.181,-0.152 M -45.11,-15.11 c -0.264,0 -0.557,0.029 -0.851,0.086 -1.084,-3.817 -2.317,-7.306 -3.753,-10.478 -1.906,4.902 -3.079,8.398 -3.577,10.478 -0.44,-0.086 -0.88,-0.118 -1.29,-0.118 -0.44,0 -0.85,0.032 -1.261,0.118 2.755,-6.69 4.428,-11.21 4.985,-13.532 0.294,0.065 0.528,0.065 0.82,0.065 0.265,0 0.558,0 0.822,-0.065 0.586,2.469 1.759,5.933 3.606,10.366 2.199,-5.869 3.343,-9.306 3.519,-10.366 0.294,0.065 0.557,0.092 0.822,0.092 0.292,0 0.585,-0.027 0.878,-0.092 0.704,2.675 2.61,7.135 5.425,13.532 -0.263,-0.03 -0.557,-0.057 -0.85,-0.057 -0.294,0 -0.557,0.027 -0.88,0.057 -1.789,-5.252 -3.167,-8.741 -3.988,-10.448 -0.909,1.852 -2.199,5.342 -3.577,10.448 -0.292,-0.057 -0.587,-0.086 -0.85,-0.086 m -4.838,15.105 c -0.06,1.922 -0.119,3.399 -0.119,4.432 0,1.714 0.088,3.19 0.088,4.429 0,3.335 -1.535,5.019 -4.604,5.019 -1.92,0 -3.248,-0.798 -4.487,-2.629 0,1.388 -0.031,2.718 -0.031,3.952 0,1.854 0.031,4.004 0.09,6.414 -0.355,-0.058 -0.768,-0.117 -1.181,-0.117 -0.355,0 -0.768,0.059 -1.212,0.117 0.09,-3.384 0.148,-6.97 0.148,-10.777 0,-2.008 -0.029,-5.61 -0.148,-10.84 0.385,0.093 0.769,0.152 1.153,0.152 0.413,0 0.826,-0.059 1.21,-0.152 -0.029,1.569 -0.06,2.691 -0.06,3.369 v 2.067 c 0,2.421 0.06,4.103 0.562,5.107 0.649,1.239 1.741,1.89 3.1,1.89 2.45,0 3.276,-1.505 3.276,-4.752 0,-1.92 -0.059,-4.488 -0.147,-7.681 0.413,0.093 0.796,0.152 1.18,0.152 0.414,0 0.827,-0.059 1.182,-0.152 m -13.019,-14.793 c -1.789,0 -3.402,-0.556 -4.634,-1.614 l -0.058,-1.495 h 0.234 c 0.88,1.35 2.112,2.024 3.695,2.024 2.316,0 3.197,-1.233 3.197,-3.754 v -0.615 c -0.734,-0.646 -2.463,-0.762 -4.985,-1.291 -2.258,-0.497 -3.343,-1.7 -3.343,-3.753 0,-2.229 1.407,-3.522 3.958,-3.522 1.643,0 3.079,0.678 4.282,1.94 0.175,-1.144 0.586,-1.674 1.582,-1.674 0.822,0 1.555,0.235 2.347,0.471 l -0.118,0.556 c -0.176,-0.03 -0.352,-0.03 -0.499,-0.03 -1.084,0 -1.26,0.529 -1.26,1.906 v 0.794 l 0.117,4.895 v 0.353 c 0,3.256 -1.26,4.809 -4.515,4.809 m 2.375,-10.351 c 0,-0.411 -0.029,-0.762 -0.498,-1.232 -0.764,-0.762 -1.936,-1.262 -2.874,-1.262 -1.584,0 -2.551,0.997 -2.551,2.729 0,2.257 1.789,2.786 5.923,3.46 z m -4.206,35.391 c 0.177,0.916 0.443,1.773 0.769,2.48 -1.507,0.769 -3.071,1.153 -4.695,1.153 -4.31,0 -7.173,-2.805 -7.173,-7.085 0,-4.31 2.746,-7.091 6.76,-7.091 2.037,0 3.631,0.448 4.93,1.452 -0.03,0.176 -0.03,0.384 -0.03,0.59 0,0.296 0.03,0.649 0.059,1.063 -1.387,-1.418 -2.746,-2.096 -4.369,-2.096 -2.981,0 -5.018,2.303 -5.018,6.111 0,3.927 1.801,6.141 4.841,6.141 1.8,0 3.099,-0.887 3.926,-2.718 m -9.576,-26.198 c -0.85,-0.588 -1.114,-0.764 -1.993,-1.291 v -1.49 c 1.232,0.997 1.847,1.52 1.964,1.578 v -4.16 c 0,-3.161 -0.057,-5.559 -0.117,-7.237 0.381,0.065 0.763,0.092 1.144,0.092 0.41,0 0.82,-0.027 1.231,-0.092 -0.089,1.822 -0.146,5.953 -0.146,12.833 0.879,0.559 1.114,0.735 2.081,1.321 v 1.519 c -0.41,-0.353 -1.084,-0.934 -2.081,-1.637 v 0.323 c 0,2.722 0.057,5.298 0.146,7.116 -0.381,-0.03 -0.821,-0.059 -1.231,-0.059 -0.353,0 -0.763,0.029 -1.144,0.059 0.117,-2.372 0.146,-5.067 0.146,-8.113 z m -3.665,-2.419 c 0.177,0.909 0.44,1.759 0.762,2.462 -1.494,0.762 -3.049,1.144 -4.662,1.144 -4.281,0 -7.124,-2.785 -7.124,-7.038 0,-4.28 2.727,-7.041 6.714,-7.041 2.023,0 3.606,0.443 4.896,1.44 -0.028,0.177 -0.028,0.382 -0.028,0.586 0,0.294 0.028,0.647 0.059,1.058 -1.379,-1.409 -2.728,-2.082 -4.34,-2.082 -2.962,0 -4.986,2.286 -4.986,6.068 0,3.9 1.789,6.1 4.809,6.1 1.789,0 3.08,-0.879 3.9,-2.697 m 0.016,25.37 c 0,0.208 0.03,0.414 0.03,0.622 0,4.043 -2.155,6.288 -5.817,6.288 -4.014,0 -6.641,-2.835 -6.641,-7.115 0,-4.163 2.746,-7.061 6.819,-7.061 1.771,0 3.395,0.565 4.901,1.657 v 0.355 c 0,0.325 0.029,0.71 0.058,1.092 -1.357,-1.327 -2.774,-1.949 -4.457,-1.949 -3.129,0 -4.841,2.098 -4.841,6.023 v 0.088 z m -2.303,1.004 h -7.586 c 0.118,3.1 1.83,5.02 3.985,5.02 2.215,0 3.601,-1.655 3.601,-4.547 z m -13.786,-8.3 c 1.092,0 2.184,0.36 3.13,0.979 l -0.208,0.649 c -0.826,-0.411 -1.505,-0.619 -2.007,-0.619 -1.83,0 -2.421,1.121 -2.421,3.665 0,2.629 0.119,4.847 0.119,6.676 0,0.15 0.03,0.652 0.059,1.447 0.295,0.03 0.649,0.03 1.033,0.03 0.737,0 1.624,-0.03 2.657,-0.089 v 0.238 c 0,0.353 0.029,0.678 0.088,0.943 -1.446,-0.118 -2.686,-0.147 -3.748,-0.147 v 1.883 c 0,0.296 0.029,1.036 0.089,2.27 -0.68,-0.325 -1.448,-0.56 -2.334,-0.71 0.031,-0.762 0.06,-1.56 0.06,-2.41 V 13.53 c -0.591,0 -1.24,0.029 -1.83,0.088 0,-0.118 0.029,-0.265 0.029,-0.443 0,-0.236 -0.029,-0.5 -0.059,-0.767 0.502,0.059 1.003,0.088 1.505,0.088 h 0.295 v -0.974 c 0,-3.783 -0.147,-6.41 -0.147,-7.857 0,-2.72 1.003,-3.966 3.69,-3.966 m -7.793,18.929 c 0,0.825 -0.65,1.445 -1.476,1.445 -0.798,0 -1.476,-0.62 -1.476,-1.445 0,-0.798 0.678,-1.447 1.476,-1.447 0.826,0 1.476,0.649 1.476,1.447 m -4.253,-35.832 c 0,0.823 0.029,1.585 0.146,2.171 -0.469,0.088 -0.821,0.147 -1.086,0.147 -1.406,0 -2.55,-1.115 -3.577,-3.286 0,1.174 0.059,2.23 0.148,3.139 -0.381,-0.089 -0.793,-0.118 -1.202,-0.118 -0.382,0 -0.792,0.029 -1.232,0.118 0.117,-1.23 0.146,-2.609 0.146,-4.136 0,-4.192 -0.058,-7.33 -0.146,-9.353 0.381,0.058 0.732,0.088 1.085,0.088 0.41,0 0.85,-0.03 1.26,-0.122 -0.087,1.296 -0.147,3.231 -0.147,5.781 0,3.9 0.822,5.806 2.992,5.806 0.469,0 0.908,-0.117 1.378,-0.38 z m -2.951,17.199 c -0.088,2.508 -0.117,6.761 -0.117,12.743 0,3.272 0,6.225 0.117,8.874 -0.383,-0.027 -0.826,-0.058 -1.239,-0.058 -0.355,0 -0.769,0.031 -1.152,0.058 0.118,-1.593 0.118,-3.447 0.118,-5.632 V 8.404 c 0,-3.685 0,-6.487 -0.118,-8.409 0.383,0.064 0.768,0.093 1.152,0.093 0.413,0 0.826,-0.029 1.239,-0.093 m -11.447,-28.551 c 2.141,6.398 4.281,12.908 6.539,19.593 -0.323,-0.088 -0.645,-0.117 -0.967,-0.117 -0.323,0 -0.616,0.029 -0.91,0.117 -1.437,-5.6 -3.108,-11.142 -4.984,-16.568 -2.024,5.571 -3.842,11.113 -5.513,16.568 -0.323,-0.088 -0.645,-0.117 -0.938,-0.117 -0.323,0 -0.616,0.029 -0.938,0.117 -1.613,-5.923 -3.431,-11.524 -5.367,-16.862 -1.876,5.806 -3.519,11.436 -4.984,16.862 -0.441,-0.088 -0.91,-0.117 -1.35,-0.117 -0.469,0 -0.937,0.029 -1.377,0.117 2.229,-6.979 4.282,-13.489 6.128,-19.593 0.352,0.092 0.674,0.151 0.997,0.151 0.353,0 0.675,-0.059 0.997,-0.151 0.85,2.351 2.61,7.687 5.366,16.014 1.965,-5.453 3.754,-10.789 5.278,-16.044 0.352,0.122 0.674,0.152 1.027,0.152 0.351,0 0.674,-0.03 0.996,-0.122 m 5.898,35.375 c 0,4.192 -2.834,7.056 -6.849,7.056 -3.897,0 -6.849,-2.864 -6.849,-7.056 0,-4.221 2.863,-7.09 6.849,-7.09 3.926,0 6.849,2.781 6.849,7.09 m -2.48,-0.179 c 0,-3.954 -1.536,-6.021 -4.369,-6.021 -2.863,0 -4.399,2.126 -4.399,6.229 0,4.075 1.536,6.171 4.37,6.171 2.862,0 4.398,-2.184 4.398,-6.379 m -11.513,8.12 c 0,3.188 -2.273,5.078 -6.466,5.078 -1.771,0 -3.365,-0.208 -4.811,-0.208 -0.414,0 -0.856,0.029 -1.417,0.09 0.118,-3.07 0.177,-6.347 0.177,-9.889 0,-3.367 -0.059,-6.643 -0.177,-9.836 0.501,0.093 0.974,0.152 1.447,0.152 0.413,0 0.796,-0.059 1.21,-0.118 -0.117,2.067 -0.148,3.69 -0.148,4.87 v 4.133 c 0.916,-0.058 1.683,-0.058 2.184,-0.058 5.226,0 8.001,2.125 8.001,5.786 m -2.716,-0.236 c 0,-3.011 -2.066,-4.517 -6.199,-4.517 -0.444,0 -0.857,0.029 -1.299,0.059 v 2.598 c 0,2.096 0.06,4.074 0.148,5.935 0.619,0.059 1.209,0.088 1.801,0.088 3.807,0 5.549,-1.063 5.549,-4.163 M -102.2,-0.005 c -0.088,2.365 -0.149,4.762 -0.149,7.154 0,2.214 0.061,4.343 0.149,6.469 -0.355,-0.088 -0.768,-0.118 -1.181,-0.118 -0.384,0 -0.768,0.03 -1.181,0.118 0.088,-2.096 0.147,-4.255 0.147,-6.469 0,-2.392 -0.059,-4.789 -0.147,-7.154 0.413,0.093 0.797,0.152 1.181,0.152 0.413,0 0.826,-0.059 1.181,-0.152 m -2.464,-21.773 c 0,-4.192 2.845,-7.04 6.804,-7.04 3.9,0 6.802,2.76 6.802,7.04 0,4.165 -2.815,7.009 -6.802,7.009 -3.871,0 -6.804,-2.844 -6.804,-7.009 m 2.434,0.03 c 0,4.047 1.525,6.129 4.34,6.129 2.844,0 4.369,-2.17 4.369,-6.333 0,-3.929 -1.525,-5.983 -4.339,-5.983 -2.845,0 -4.37,2.11 -4.37,6.187 m 92.424,-3.548 c 0,-2.229 1.408,-3.522 3.958,-3.522 1.643,0 3.08,0.678 4.281,1.94 0.177,-1.144 0.587,-1.674 1.583,-1.674 0.822,0 1.554,0.235 2.346,0.471 l -0.117,0.556 c -0.176,-0.03 -0.351,-0.03 -0.498,-0.03 -1.086,0 -1.261,0.529 -1.261,1.906 v 0.794 l 0.117,4.895 v 0.353 c 0,3.256 -1.261,4.809 -4.516,4.809 -1.788,0 -3.401,-0.556 -4.632,-1.614 l -0.059,-1.495 h 0.234 c 0.879,1.35 2.112,2.024 3.696,2.024 2.315,0 3.195,-1.233 3.195,-3.754 v -0.615 c -0.733,-0.646 -2.463,-0.762 -4.985,-1.291 -2.257,-0.497 -3.342,-1.7 -3.342,-3.753 m 2.345,0.382 c 0,2.257 1.788,2.786 5.924,3.46 v -3.695 c 0,-0.411 -0.03,-0.762 -0.499,-1.232 -0.763,-0.762 -1.935,-1.262 -2.873,-1.262 -1.583,0 -2.552,0.997 -2.552,2.729"
         style="fill:#ffffff;fill-opacity:1;fill-rule:nonzero;stroke:#000000;stroke-opacity:1"
         transform="matrix(1.3333333,0,0,-1.3333333,243.8372,289.67907)" />
    </g>
  </g>
</svg>
